<svg width="512" height="512" viewBox="0 0 512 512" fill="none" xmlns="http://www.w3.org/2000/svg">
  <rect width="512" height="512" rx="118" fill="#0F1418"/>
  <rect x="26" y="26" width="460" height="460" rx="96" fill="url(#paint0_linear)"/>
  <path d="M160 150C160 128.909 177.091 111.818 198.182 111.818H313.818C334.909 111.818 352 128.909 352 150V205.818C352 226.909 334.909 244 313.818 244H241.714L194.846 321.648C186.193 335.982 165.623 336.553 156.188 322.725C152.128 316.775 150 309.748 150 302.544V150H160Z" fill="#F4F8FB"/>
  <path d="M236.55 244H352L281.316 361.762C271.597 377.962 248.142 377.804 238.643 361.474L196.183 288.489L236.55 244Z" fill="#D8E4EC"/>
  <path d="M116 158.5C116 134.475 135.475 115 159.5 115H226V203.205L176.751 257.55C162.876 272.862 138 263.047 138 242.384V158.5C138 146.074 148.074 136 160.5 136H181V115H159.5C123.878 115 95 143.878 95 179.5V332.5C95 368.122 123.878 397 159.5 397H214.605L190.303 355.227H159.5C148.73 355.227 140 346.497 140 335.727V285.183L226 190.291V115H159.5C135.475 115 116 134.475 116 158.5Z" fill="#FF8B4A"/>
  <circle cx="367" cy="146" r="42" fill="#FFB36C"/>
  <circle cx="367" cy="146" r="22" fill="#0F1418"/>
  <defs>
    <linearGradient id="paint0_linear" x1="92" y1="62" x2="432" y2="450" gradientUnits="userSpaceOnUse">
      <stop stop-color="#1B252B"/>
      <stop offset="1" stop-color="#121A1F"/>
    </linearGradient>
  </defs>
</svg>
